HIERARCHY
ROOT Hips
{
	OFFSET 0.000000 100.481300 0.000000
	CHANNELS 6 Xposition Yposition Zposition Xrotation Yrotation Zrotation
	JOINT Spine
	{
		OFFSET -0.279200 12.230698 -2.892100
		CHANNELS 3 Xrotation Yrotation Zrotation
		JOINT Spine1
		{
			OFFSET -0.325700 14.269203 -3.374200
			CHANNELS 3 Xrotation Yrotation Zrotation
			JOINT Spine2
			{
				OFFSET -0.372300 16.307602 -0.352600
				CHANNELS 3 Xrotation Yrotation Zrotation
				JOINT Neck
				{
					OFFSET -0.418800 17.814194 8.416900
					CHANNELS 3 Xrotation Yrotation Zrotation
					JOINT Head
					{
						OFFSET 0.000000 7.031097 3.806800
						CHANNELS 3 Xrotation Yrotation Zrotation
						JOINT HeadTop_End
						{
							OFFSET 0.000000 24.646606 12.978600
							CHANNELS 3 Xrotation Yrotation Zrotation
							End Site
							{
								OFFSET 0.000000 27.854965 0.000000
							}
						}
					}
				}
				JOINT LeftShoulder
				{
					OFFSET 16.952999 14.495407 -7.737500
					CHANNELS 3 Xrotation Yrotation Zrotation
					JOINT LeftArm
					{
						OFFSET 9.308998 -2.777710 0.208600
						CHANNELS 3 Xrotation Yrotation Zrotation
						JOINT LeftForeArm
						{
							OFFSET 29.972298 0.000000 0.000000
							CHANNELS 3 Xrotation Yrotation Zrotation
							JOINT LeftHand
							{
								OFFSET 26.026505 0.000000 0.000000
								CHANNELS 3 Xrotation Yrotation Zrotation
								JOINT LeftHandThumb1
								{
									OFFSET 12.240501 -7.147949 9.207150
									CHANNELS 3 Xrotation Yrotation Zrotation
									JOINT LeftHandThumb2
									{
										OFFSET 4.138618 -2.389435 2.389433
										CHANNELS 3 Xrotation Yrotation Zrotation
										JOINT LeftHandThumb3
										{
											OFFSET 2.726913 -1.574387 1.574386
											CHANNELS 3 Xrotation Yrotation Zrotation
											JOINT LeftHandThumb4
											{
												OFFSET 3.941010 -2.275345 2.275342
												CHANNELS 3 Xrotation Yrotation Zrotation
												End Site
												{
													OFFSET -0.005798 5.087799 0.009903
												}
											}
										}
									}
								}
								JOINT LeftHandIndex1
								{
									OFFSET 24.424698 -1.985611 5.953459
									CHANNELS 3 Xrotation Yrotation Zrotation
									JOINT LeftHandIndex2
									{
										OFFSET 6.426697 0.000000 0.000000
										CHANNELS 3 Xrotation Yrotation Zrotation
										JOINT LeftHandIndex3
										{
											OFFSET 5.337898 0.000000 0.000000
											CHANNELS 3 Xrotation Yrotation Zrotation
											JOINT LeftHandIndex4
											{
												OFFSET 4.409401 0.000000 0.000000
												CHANNELS 3 Xrotation Yrotation Zrotation
												End Site
												{
													OFFSET 0.000000 4.409363 0.014373
												}
											}
										}
									}
								}
								JOINT LeftHandMiddle1
								{
									OFFSET 23.810104 0.000000 0.000000
									CHANNELS 3 Xrotation Yrotation Zrotation
									JOINT LeftHandMiddle2
									{
										OFFSET 7.176498 0.000000 0.000000
										CHANNELS 3 Xrotation Yrotation Zrotation
										JOINT LeftHandMiddle3
										{
											OFFSET 6.774902 0.000000 0.000000
											CHANNELS 3 Xrotation Yrotation Zrotation
											JOINT LeftHandMiddle4
											{
												OFFSET 5.403328 0.000000 0.000000
												CHANNELS 3 Xrotation Yrotation Zrotation
												End Site
												{
													OFFSET -0.027702 5.403244 0.017414
												}
											}
										}
									}
								}
								JOINT LeftHandRing1
								{
									OFFSET 22.908401 -0.839279 -6.020567
									CHANNELS 3 Xrotation Yrotation Zrotation
									JOINT LeftHandRing2
									{
										OFFSET 6.337502 0.000000 0.000000
										CHANNELS 3 Xrotation Yrotation Zrotation
										JOINT LeftHandRing3
										{
											OFFSET 5.779297 0.000000 0.000000
											CHANNELS 3 Xrotation Yrotation Zrotation
											JOINT LeftHandRing4
											{
												OFFSET 4.965698 0.000000 0.000000
												CHANNELS 3 Xrotation Yrotation Zrotation
												End Site
												{
													OFFSET 0.000000 4.965668 0.016186
												}
											}
										}
									}
								}
								JOINT LeftHandPinky1
								{
									OFFSET 20.037003 -1.530319 -10.950146
									CHANNELS 3 Xrotation Yrotation Zrotation
									JOINT LeftHandPinky2
									{
										OFFSET 5.254700 0.000000 0.000000
										CHANNELS 3 Xrotation Yrotation Zrotation
										JOINT LeftHandPinky3
										{
											OFFSET 4.810204 0.000000 0.000000
											CHANNELS 3 Xrotation Yrotation Zrotation
											JOINT LeftHandPinky4
											{
												OFFSET 3.647202 0.000000 0.000000
												CHANNELS 3 Xrotation Yrotation Zrotation
												End Site
												{
													OFFSET 0.000000 3.647186 0.011889
												}
											}
										}
									}
								}
							}
						}
					}
				}
				JOINT RightShoulder
				{
					OFFSET -15.141001 14.495407 -7.737500
					CHANNELS 3 Xrotation Yrotation Zrotation
					JOINT RightArm
					{
						OFFSET -9.308998 -2.777710 0.208500
						CHANNELS 3 Xrotation Yrotation Zrotation
						JOINT RightForeArm
						{
							OFFSET -29.972300 0.000000 0.000000
							CHANNELS 3 Xrotation Yrotation Zrotation
							JOINT RightHand
							{
								OFFSET -26.026505 0.000000 0.000000
								CHANNELS 3 Xrotation Yrotation Zrotation
								JOINT RightHandThumb1
								{
									OFFSET -12.240601 -7.148026 9.207092
									CHANNELS 3 Xrotation Yrotation Zrotation
									JOINT RightHandThumb2
									{
										OFFSET -4.138618 -2.389435 2.389433
										CHANNELS 3 Xrotation Yrotation Zrotation
										JOINT RightHandThumb3
										{
											OFFSET -2.726974 -1.574417 1.574421
											CHANNELS 3 Xrotation Yrotation Zrotation
											JOINT RightHandThumb4
											{
												OFFSET -3.941010 -2.275345 2.275343
												CHANNELS 3 Xrotation Yrotation Zrotation
												End Site
												{
													OFFSET 0.005814 5.087799 0.009927
												}
											}
										}
									}
								}
								JOINT RightHandIndex1
								{
									OFFSET -24.424698 -1.985657 5.953444
									CHANNELS 3 Xrotation Yrotation Zrotation
									JOINT RightHandIndex2
									{
										OFFSET -6.426697 0.000000 0.000000
										CHANNELS 3 Xrotation Yrotation Zrotation
										JOINT RightHandIndex3
										{
											OFFSET -5.337898 0.000000 0.000000
											CHANNELS 3 Xrotation Yrotation Zrotation
											JOINT RightHandIndex4
											{
												OFFSET -4.409401 0.000000 0.000000
												CHANNELS 3 Xrotation Yrotation Zrotation
												End Site
												{
													OFFSET 0.000000 4.409363 0.014408
												}
											}
										}
									}
								}
								JOINT RightHandMiddle1
								{
									OFFSET -23.810097 0.000000 0.000000
									CHANNELS 3 Xrotation Yrotation Zrotation
									JOINT RightHandMiddle2
									{
										OFFSET -7.176498 0.000000 0.000000
										CHANNELS 3 Xrotation Yrotation Zrotation
										JOINT RightHandMiddle3
										{
											OFFSET -6.774902 0.000000 0.000000
											CHANNELS 3 Xrotation Yrotation Zrotation
											JOINT RightHandMiddle4
											{
												OFFSET -5.403328 0.000000 0.000000
												CHANNELS 3 Xrotation Yrotation Zrotation
												End Site
												{
													OFFSET 0.027702 5.403244 0.017457
												}
											}
										}
									}
								}
								JOINT RightHandRing1
								{
									OFFSET -22.908302 -0.839325 -6.020576
									CHANNELS 3 Xrotation Yrotation Zrotation
									JOINT RightHandRing2
									{
										OFFSET -6.337502 0.000000 0.000000
										CHANNELS 3 Xrotation Yrotation Zrotation
										JOINT RightHandRing3
										{
											OFFSET -5.779297 0.000000 0.000000
											CHANNELS 3 Xrotation Yrotation Zrotation
											JOINT RightHandRing4
											{
												OFFSET -4.965698 0.000000 0.000000
												CHANNELS 3 Xrotation Yrotation Zrotation
												End Site
												{
													OFFSET 0.000000 4.965668 0.016226
												}
											}
										}
									}
								}
								JOINT RightHandPinky1
								{
									OFFSET -20.037003 -1.530334 -10.950259
									CHANNELS 3 Xrotation Yrotation Zrotation
									JOINT RightHandPinky2
									{
										OFFSET -5.254700 0.000000 0.000000
										CHANNELS 3 Xrotation Yrotation Zrotation
										JOINT RightHandPinky3
										{
											OFFSET -4.810204 0.000000 0.000000
											CHANNELS 3 Xrotation Yrotation Zrotation
											JOINT RightHandPinky4
											{
												OFFSET -3.647202 0.000000 0.000000
												CHANNELS 3 Xrotation Yrotation Zrotation
												End Site
												{
													OFFSET 0.000000 3.647186 0.011917
												}
											}
										}
									}
								}
							}
						}
					}
				}
			}
		}
	}
	JOINT LeftUpLeg
	{
		OFFSET 15.427100 -6.655098 0.678600
		CHANNELS 3 Xrotation Yrotation Zrotation
		JOINT LeftLeg
		{
			OFFSET 4.081073 -39.591068 13.024000
			CHANNELS 3 Xrotation Yrotation Zrotation
			JOINT LeftFoot
			{
				OFFSET -4.081074 -37.707932 -15.979700
				CHANNELS 3 Xrotation Yrotation Zrotation
				JOINT LeftToeBase
				{
					OFFSET 5.346399 -15.068900 20.645000
					CHANNELS 3 Xrotation Yrotation Zrotation
					JOINT LeftToe_End
					{
						OFFSET 2.754700 0.931300 11.300900
						CHANNELS 3 Xrotation Yrotation Zrotation
						End Site
						{
							OFFSET 0.000000 11.669021 0.000000
						}
					}
				}
			}
		}
	}
	JOINT RightUpLeg
	{
		OFFSET -15.569500 -6.655098 0.678600
		CHANNELS 3 Xrotation Yrotation Zrotation
		JOINT RightLeg
		{
			OFFSET -4.081825 -39.591045 13.023800
			CHANNELS 3 Xrotation Yrotation Zrotation
			JOINT RightFoot
			{
				OFFSET 4.081824 -37.707954 -15.979600
				CHANNELS 3 Xrotation Yrotation Zrotation
				JOINT RightToeBase
				{
					OFFSET -5.346400 -15.068900 20.645000
					CHANNELS 3 Xrotation Yrotation Zrotation
					JOINT RightToe_End
					{
						OFFSET -2.754700 0.931300 11.300900
						CHANNELS 3 Xrotation Yrotation Zrotation
						End Site
						{
							OFFSET 0.000000 11.669021 0.000000
						}
					}
				}
			}
		}
	}
}
MOTION
Frames: 4
Frame Time: 0.033333
7.151188 12.351875 -30.256172 90.582379 2.149455 -1.280802 1.088146 0.370182 1.535371 -0.624974 0.234267 0.318156 -0.627451 0.243865 0.308791 7.686083 -13.011802 -8.752792 5.522583 -59.713619 -4.654471 -0.000000 -0.000001 -0.000000 -1.201757 2.243432 25.227169 -46.041626 12.118273 -17.674429 -0.000016 -50.584572 -0.000013 -29.444857 -9.116982 23.311922 -21.723478 -2.958193 13.403793 9.467684 11.281980 5.836421 0.483526 13.886926 3.684765 0.000001 0.000000 0.000001 -0.353454 -11.181471 -2.492794 -0.000001 0.000006 -0.000006 0.023652 0.571399 -4.740278 0.000000 -0.000001 -0.000000 0.010789 -0.386127 3.201437 0.054545 0.866739 -7.201681 0.087829 1.098482 -9.142270 0.000001 0.000003 0.000002 -0.212619 9.285529 1.875684 0.040792 0.749940 -6.226904 0.000001 0.000001 0.000001 -0.000001 -0.000002 -0.000001 -1.045099 24.867986 4.027971 0.120712 -2.736840 -11.496913 0.023527 0.569870 -4.727737 -0.000001 -0.000000 -0.000001 -0.549136 -1.742170 -15.029905 -82.000471 6.124812 10.880865 0.000000 61.894006 0.000001 -3.693791 -20.279125 -6.305289 -19.571649 1.050165 -20.548525 3.621397 -6.220606 0.316050 5.579436 -20.389928 -6.498986 0.000001 0.000000 -0.000002 0.973915 17.445905 -2.234689 0.003446 -0.219379 1.800359 0.006900 -0.310333 2.547386 0.000001 -0.000001 -0.000001 0.407276 3.709683 -6.911256 0.070977 -0.993008 8.176712 -0.201837 -1.261538 9.954275 0.000001 -0.000002 -0.000002 -1.180282 -7.201546 -9.216685 0.141357 -1.397707 11.549374 1.137098 -0.397269 3.897581 0.000001 0.000000 0.000001 -2.643976 -19.634692 -8.931227 0.084736 -1.084433 8.935673 -0.000001 -0.000005 -0.000000 -0.000000 0.000000 0.000000 -14.243646 2.784557 9.918984 8.248658 -9.420644 6.333351 53.913770 -30.338017 -3.520751 16.240981 -0.512255 -4.638184 0.000002 0.000003 -0.000001 -25.534466 -15.776050 -44.272217 10.450322 -9.337298 -4.267835 58.134069 -10.044523 22.445629 19.398075 -0.347317 -5.402982 -0.000000 0.000000 -0.000000 
7.187633 12.334442 -30.231636 90.485964 1.923601 -1.166914 1.108717 0.339046 1.533008 -0.611929 0.200065 0.317952 -0.613977 0.210479 0.309858 7.720235 -12.875552 -8.778389 4.965249 -59.300023 -4.892774 0.000000 0.000000 0.000001 -1.181423 2.197545 25.117216 -46.042551 12.487707 -17.418087 -0.000002 -50.713571 -0.000017 -29.332661 -9.034594 23.210238 -21.723487 -2.958217 13.403780 9.467687 11.282022 5.836422 0.483524 13.886910 3.684757 0.000001 0.000002 -0.000000 -0.353457 -11.181464 -2.492796 -0.000000 0.000001 0.000000 0.023652 0.571382 -4.740282 0.000001 -0.000001 0.000000 0.010790 -0.386140 3.201434 0.054544 0.866742 -7.201683 0.087830 1.098478 -9.142269 -0.000000 -0.000000 0.000000 -0.212620 9.285534 1.875685 0.040793 0.749936 -6.226905 -0.000002 -0.000005 -0.000001 -0.000000 -0.000004 0.000000 -1.045098 24.867990 4.027970 0.120712 -2.736840 -11.496918 0.023527 0.569863 -4.727736 0.000000 -0.000003 -0.000002 -0.485509 -1.325645 -15.657247 -81.837394 5.354585 10.833100 -0.000006 62.121779 0.000005 -3.783127 -20.239850 -6.387403 -19.571656 1.050148 -20.548530 3.621394 -6.220579 0.316056 5.579435 -20.389933 -6.498991 -0.000002 0.000000 -0.000001 0.973916 17.445879 -2.234689 0.003447 -0.219362 1.800360 0.006900 -0.310343 2.547383 0.000001 -0.000001 0.000001 0.407275 3.709666 -6.911255 0.070978 -0.992990 8.176711 -0.201836 -1.261528 9.954268 0.000000 0.000000 0.000000 -1.180282 -7.201558 -9.216685 0.141358 -1.397709 11.549377 1.137097 -0.397277 3.897586 -0.000000 0.000003 0.000001 -2.643974 -19.634688 -8.931224 0.084736 -1.084440 8.935666 -0.000001 -0.000002 -0.000002 -0.000000 -0.000002 -0.000001 -14.082639 2.808427 9.708228 8.422060 -9.412802 6.236484 53.408442 -30.298005 -3.084735 17.600571 -0.576017 -4.914101 -0.000001 0.000001 -0.000000 -25.962290 -15.690594 -44.111148 11.659940 -8.801122 -3.674421 57.558038 -13.416700 24.375026 14.063774 -0.460390 -6.664422 -0.000000 -0.000000 0.000002 
7.075223 12.293282 -30.335037 90.397793 1.693375 -0.968595 1.151053 0.316957 1.476361 -0.598039 0.188018 0.277729 -0.599582 0.198379 0.269956 7.650382 -12.785766 -8.777129 4.662319 -59.135914 -4.897685 0.000000 -0.000001 0.000001 -1.238727 2.450748 24.730563 -46.054514 12.153298 -17.064640 -0.000007 -50.810720 -0.000006 -29.404258 -8.827021 23.226007 -21.723483 -2.958202 13.403792 9.467680 11.281996 5.836421 0.483526 13.886930 3.684763 -0.000002 0.000001 -0.000000 -0.353457 -11.181473 -2.492797 -0.000001 -0.000006 -0.000002 0.023651 0.571400 -4.740277 -0.000000 0.000001 0.000000 0.010790 -0.386137 3.201432 0.054544 0.866749 -7.201683 0.087828 1.098483 -9.142265 0.000001 0.000002 0.000000 -0.212619 9.285535 1.875683 0.040794 0.749956 -6.226904 -0.000000 -0.000012 -0.000002 0.000001 -0.000004 -0.000000 -1.045096 24.867998 4.027972 0.120712 -2.736843 -11.496911 0.023524 0.569875 -4.727732 -0.000000 -0.000001 -0.000000 -0.462793 -1.108152 -16.280483 -81.792779 4.602867 10.978207 -0.000000 62.244887 -0.000004 -3.796929 -20.153325 -6.419593 -19.571651 1.050163 -20.548530 3.621398 -6.220596 0.316056 5.579435 -20.389933 -6.498995 -0.000002 -0.000001 -0.000001 0.973916 17.445886 -2.234689 0.003449 -0.219365 1.800358 0.006898 -0.310334 2.547383 0.000000 -0.000000 0.000000 0.407275 3.709651 -6.911258 0.070977 -0.992975 8.176715 -0.201836 -1.261544 9.954266 0.000000 -0.000001 -0.000001 -1.180281 -7.201548 -9.216685 0.141357 -1.397707 11.549378 1.137099 -0.397289 3.897583 0.000000 -0.000003 -0.000000 -2.643974 -19.634695 -8.931229 0.084736 -1.084434 8.935667 -0.000001 -0.000004 0.000000 -0.000000 -0.000004 -0.000001 -14.005199 2.824498 9.583395 8.884519 -9.474988 6.153330 52.423898 -30.266822 -2.808323 19.075516 -0.663766 -5.270420 0.000002 0.000000 -0.000000 -26.695555 -15.368370 -44.124740 12.801141 -8.444181 -3.481899 57.773490 -15.167176 25.260515 10.859605 -0.453882 -6.850722 0.000000 0.000001 0.000001 
7.038010 12.259575 -30.358452 90.364673 1.484845 -0.828315 1.178947 0.301360 1.457003 -0.599915 0.175349 0.246898 -0.601013 0.185650 0.239507 7.514325 -12.734121 -8.847751 4.469243 -59.092891 -4.829983 -0.000000 -0.000000 0.000002 -1.332030 2.833316 24.315438 -46.018068 11.623636 -16.794605 -0.000017 -50.840711 -0.000013 -29.540739 -8.662666 23.276508 -21.723488 -2.958200 13.403790 9.467682 11.281993 5.836415 0.483530 13.886926 3.684759 0.000000 -0.000001 -0.000001 -0.353455 -11.181476 -2.492796 0.000001 0.000001 -0.000001 0.023649 0.571393 -4.740280 0.000000 0.000000 0.000000 0.010791 -0.386140 3.201433 0.054543 0.866738 -7.201685 0.087830 1.098495 -9.142268 0.000001 0.000003 0.000002 -0.212618 9.285528 1.875680 0.040793 0.749955 -6.226908 0.000001 0.000001 0.000002 -0.000000 -0.000001 -0.000000 -1.045099 24.867995 4.027969 0.120712 -2.736824 -11.496912 0.023527 0.569863 -4.727732 -0.000000 0.000000 -0.000000 -0.465450 -1.021668 -16.828592 -81.828678 3.971229 11.265065 0.000000 62.333194 0.000002 -3.737684 -20.074257 -6.423565 -19.571648 1.050162 -20.548518 3.621399 -6.220594 0.316052 5.579433 -20.389933 -6.498990 -0.000001 0.000002 -0.000001 0.973917 17.445896 -2.234690 0.003445 -0.219358 1.800360 0.006903 -0.310344 2.547382 -0.000000 -0.000000 -0.000000 0.407275 3.709683 -6.911255 0.070982 -0.993013 8.176711 -0.201838 -1.261541 9.954273 0.000001 0.000001 -0.000000 -1.180283 -7.201545 -9.216684 0.141357 -1.397708 11.549374 1.137099 -0.397292 3.897581 0.000001 -0.000002 0.000001 -2.643974 -19.634682 -8.931226 0.084737 -1.084432 8.935667 0.000001 0.000000 -0.000000 0.000000 -0.000001 -0.000001 -13.933140 2.870120 9.474238 9.179335 -9.498494 6.118371 51.711024 -30.226159 -2.370212 20.372673 -0.746572 -5.584968 -0.000001 0.000001 -0.000002 -27.096860 -15.073997 -44.052900 13.075403 -8.336518 -3.640931 58.360715 -15.560042 25.235135 10.225175 -0.403417 -6.507950 0.000001 0.000002 0.000002 
